<svg width="141" height="26" viewBox="0 0 141 26" fill="none" xmlns="http://www.w3.org/2000/svg">
<path d="M22.0885 9.62829H22.2596L22.2293 9.46015C21.7631 6.87132 20.5956 4.78958 18.8702 3.35532C17.1449 1.9211 14.8717 1.14258 12.2086 1.14258C9.04553 1.14258 6.24107 2.25975 4.22732 4.30632C2.21332 6.35309 1 9.31935 1 12.9997C1 16.6789 2.17954 19.6438 4.0846 21.6903C5.98976 23.7368 8.61337 24.8569 11.484 24.8569C14.248 24.8569 16.4648 23.8341 17.8947 22.0042V24.3793V24.5222H18.0377H22.1544H22.2974V24.3793V11.5271V11.3842H22.1544H12.2744H12.1314V11.5271V16.0789V16.2217H12.2744H16.9176C16.7295 17.3911 16.1557 18.265 15.3552 18.8549C14.5159 19.4733 13.4194 19.785 12.2415 19.785C10.5675 19.785 9.2006 19.1566 8.25008 18.0445C7.29756 16.9301 6.75291 15.3174 6.75291 13.3344V12.665C6.75291 10.682 7.29756 9.06883 8.23438 7.95403C9.16922 6.84152 10.5034 6.21441 12.1098 6.21441C14.2011 6.21441 16.037 7.28772 16.4814 9.51338L16.5043 9.62829H16.6216H22.0885ZM93.5703 15.6933L93.5883 15.5344H93.4284H87.8261H87.7071L87.6854 15.6512C87.4211 17.0761 86.7802 18.0635 85.9307 18.6963C85.0793 19.3307 84.0062 19.6177 82.865 19.6177C81.1979 19.6177 79.8207 19.005 78.8589 17.9212C77.8956 16.8357 77.3382 15.2655 77.3382 13.3344V12.665C77.3382 10.734 77.8956 9.16375 78.8589 8.07826C79.8207 6.99443 81.1979 6.38175 82.865 6.38175C84.0062 6.38175 85.0793 6.66878 85.9307 7.30312C86.7802 7.93595 87.4211 8.92332 87.6854 10.3482L87.7071 10.465H87.8261H93.4284H93.5883L93.5703 10.3061C93.2288 7.29183 91.8951 4.99766 89.9786 3.45838C88.0638 1.9205 85.5755 1.14258 82.9325 1.14258C79.6932 1.14258 76.8205 2.25901 74.7572 4.30506C72.6937 6.35163 71.4498 9.31832 71.4498 12.9997C71.4498 16.6811 72.6937 19.6478 74.7572 21.6944C76.8205 23.7404 79.6932 24.8569 82.9325 24.8569C85.5755 24.8569 88.0638 24.0789 89.9786 22.5411C91.8951 21.0018 93.2288 18.7076 93.5703 15.6933ZM96.5814 24.303V24.4458H96.7244H102.103H102.246V24.303V15.4365H110.566V24.303V24.4458H110.709H116.088H116.231V24.303V1.69646V1.5536H116.088H110.709H110.566V1.69646V10.164H102.246V1.69646V1.5536H102.103H96.7244H96.5814V1.69646V24.303ZM120.065 24.303V24.4458H120.208H128.417C131.736 24.4458 134.563 23.3713 136.56 21.3958C138.558 19.42 139.714 16.5554 139.714 12.9997C139.714 9.44403 138.558 6.57946 136.56 4.60361C134.563 2.62808 131.736 1.5536 128.417 1.5536H120.208H120.065V1.69646V24.303ZM58.4648 6.82606V24.303V24.4458H58.6078H63.9787H64.1217V24.303V6.82606H70.357H70.5V6.68321V1.69646V1.5536H70.357H52.2295H52.0865V1.69646V6.68321V6.82606H52.2295H58.4648ZM25.7193 24.303V24.4458H25.8623H40.2818H40.4248V24.303V19.3162V19.1734H40.2818H31.3092V1.69646V1.5536H31.1661H25.8623H25.7193V1.69646V24.303ZM49.2756 7.70023L49.3174 7.65838V7.59915V1.81688V1.67402H49.1744H43.836H43.693V1.81688V12.9252V13.2698L43.937 13.0263L49.2756 7.70023ZM43.693 24.4527V24.5955H43.836H49.1744H49.3174V24.4527V12.9925V12.6487L49.0734 12.8913L43.7351 18.2003L43.693 18.2422V18.3015V24.4527ZM128.254 19.2399H125.584V6.75955H128.254C130.004 6.75955 131.437 7.33821 132.432 8.35789C133.428 9.37795 133.998 10.8524 133.998 12.6673V13.3322C133.998 15.147 133.428 16.6215 132.432 17.6415C131.437 18.6612 130.004 19.2399 128.254 19.2399Z" fill="black" stroke="black"/>
</svg>
